# xmcd CD database file
#
# Track frame offsets:
#	150
#	25675
#	53425
#	78846
#	110041
#	140303
#	166378
#	184005
#	219318
#	239065
#	260417
#	283994
#
# Disc length: 4104 seconds
#
# Revision: 1
# Processed by: cddbd v1.5.2PL0 Copyright (c) Steve Scherf et al.
# Submitted via: CDex 1.51
#
DISCID=a510060c
DTITLE=William Baloy Sexteto - Bar Montserrat - Havanna Cuba
DYEAR=1900
DGENRE=Salsa
TTITLE0=02 - llego lo que tu esperabas
TTITLE1=03 - Popurri de sones
TTITLE2=lo que se amar
TTITLE3=04 - Lagrimas negras
TTITLE4=05 - A mi manera
TTITLE5=06 - Guantanamera
TTITLE6=07 - No pierdas la ocacion
TTITLE7=08 - Chan Chan
TTITLE8=09 - Dulce Habanera
TTITLE9=10 - Hasta siempre comandante
TTITLE10=11 - Tu lo sabes bien
TTITLE11=12 - Lo que tenias que tener
EXTD=
EXTT0=
EXTT1=
EXTT2=
EXTT3=
EXTT4=
EXTT5=
EXTT6=
EXTT7=
EXTT8=
EXTT9=
EXTT10=
EXTT11=
PLAYORDER=
